<svg xmlns="http://www.w3.org/2000/svg" viewBox="0 0 50.68 53.93"><defs><style>.cls-1,.cls-2{fill:none;stroke-miterlimit:10;stroke-width:1.5px;}.cls-1{stroke:#64c8bd;}.cls-2{stroke:#094a6f;}</style></defs><g id="Layer_2" data-name="Layer 2"><g id="Layer_4" data-name="Layer 4"><path class="cls-1" d="M1.63,7.88l11.89,6.86,11.9-6.86L14.9,1.8a2.76,2.76,0,0,0-2.75,0Z"/><path class="cls-2" d="M2.12,23.74l10.53,6.08V16.08L.75,9.21V21.36A2.73,2.73,0,0,0,2.12,23.74Z"/><path class="cls-1" d="M28.89,7.73,40.78,14.6l7.78-4.49a2.75,2.75,0,0,0,0-4.76L40.78.87Z"/><polygon class="cls-2" points="27.79 22.91 39.68 29.77 39.68 16.04 27.79 9.17 27.79 22.91"/><polygon class="cls-1" points="15.12 31.14 27.01 38.01 38.91 31.14 27.01 24.27 15.12 31.14"/><path class="cls-2" d="M15.56,46.56l10.52,6.08V39.45L14.19,32.58v11.6A2.75,2.75,0,0,0,15.56,46.56Z"/></g></g></svg>