<svg xmlns="http://www.w3.org/2000/svg" viewBox="0 0 643.49 369.71"><defs><style>.cls-1,.cls-17{fill:#004b72;}.cls-1,.cls-10,.cls-11,.cls-12,.cls-2,.cls-20,.cls-3,.cls-4,.cls-5,.cls-8,.cls-9{fill-rule:evenodd;}.cls-18,.cls-2{fill:#cfe7f8;}.cls-13,.cls-3{fill:#a19dcd;}.cls-14,.cls-4{fill:#42a4dc;}.cls-19,.cls-5{fill:#b5ddf6;}.cls-6,.cls-9{fill:#65c6bb;}.cls-7,.cls-8{fill:#1b7fbc;}.cls-10{fill:#43b64a;}.cls-11{fill:#12a84b;}.cls-12{fill:#51b848;}.cls-15{fill:#6867af;}.cls-16,.cls-20{fill:#423091;}.cls-21{fill:#ffe38e;}</style></defs><g id="Layer_2" data-name="Layer 2"><g id="Layer_1-2" data-name="Layer 1"><g id="Horizon_Lake" data-name="Horizon/Lake"><g id="Mountain-Group"><g id="Mountain"><polygon id="Mountain-Body" class="cls-1" points="120.59 202.34 213.13 309.93 28.06 309.93 120.59 202.34"/><polygon id="Mountain-Top" class="cls-2" points="120.84 202.34 130.21 204.69 148.5 234.44 148.5 234.66 139.37 244.89 130.24 234.66 120.68 244.89 111.11 234.66 101.98 244.89 92.91 234.73 120.84 202.34"/></g><g id="Mountain-2" data-name="Mountain"><polygon id="Mountain-Body-2" data-name="Mountain-Body" class="cls-3" points="172.84 233.89 206.76 273.26 225.18 278.7 238.35 309.93 107.33 309.93 172.84 233.89"/><polygon id="Mountain-Top-2" data-name="Mountain-Top" class="cls-2" points="172.48 233.89 178.4 232.54 196.26 261.34 196.26 261.53 188.41 270.27 180.56 261.53 172.34 270.27 164.11 261.53 156.26 270.27 148.47 261.59 172.48 233.89"/></g><g id="Mountain-3" data-name="Mountain"><polygon id="Mountain-Body-3" data-name="Mountain-Body" class="cls-4" points="61.13 238.63 122.26 309.93 0 309.93 13.05 284.21 28.39 276.82 61.13 238.63"/><polygon id="Mountain-Top-3" data-name="Mountain-Top" class="cls-5" points="61 238.63 83.33 264.45 83.33 264.62 75.96 272.85 68.59 264.62 60.87 272.85 53.15 264.62 45.78 272.85 38.46 264.68 61 238.63"/></g></g><g id="Mountain-Group-2" data-name="Mountain-Group"><g id="Mountain-4" data-name="Mountain"><polygon id="Mountain-Body-4" data-name="Mountain-Body" class="cls-5" points="464.76 205.43 544.65 309.93 388.41 309.93 416.69 255.82 436.11 244.65 464.76 205.43"/><polygon id="Mountain-Top-4" data-name="Mountain-Top" class="cls-2" points="464.72 205.43 470.37 206.61 481.31 226.95 481.31 227.05 475.83 233.89 470.36 227.05 464.63 233.89 458.9 227.05 453.43 233.89 448 227.11 464.72 205.43"/></g><g id="Mountain-5" data-name="Mountain"><polygon id="Mountain-Body-5" data-name="Mountain-Body" class="cls-1" points="525.98 182.26 623.42 309.93 418.53 309.93 436.39 275.33 462.31 259.81 472.9 238.69 492.14 226.59 525.98 182.26"/><polygon id="Mountain-Top-5" data-name="Mountain-Top" class="cls-2" points="525.85 182.26 546.36 209.06 539.64 217.53 532.9 209.05 525.85 217.53 518.8 209.05 512.06 217.53 505.34 209.06 517.34 183.97 525.85 182.26"/></g><g id="Mountain-6" data-name="Mountain"><polygon id="Mountain-Body-6" data-name="Mountain-Body" class="cls-4" points="573.01 236.06 610.92 279.49 634.52 290.47 643.49 309.93 496.52 309.93 510.74 293.64 528.04 287.59 573.01 236.06"/><polygon id="Mountain-Top-6" data-name="Mountain-Top" class="cls-5" points="572.87 236.06 596.42 262.72 596.42 262.9 588.65 271.4 580.88 262.9 572.73 271.4 564.59 262.9 556.82 271.4 549.1 262.96 572.87 236.06"/></g></g><rect id="Green" class="cls-6" y="309.93" width="643.49" height="48.65"/><rect id="Lake" class="cls-7" y="315.85" width="643.49" height="42.73"/><path id="Rectangle" class="cls-8" d="M260.27,309.93h134c2.5,4.19,14.91,5.4,27.91,6.44H221.62C244.23,315.85,258.2,313.88,260.27,309.93Z"/><g id="Trees"><path id="Combined-Shape" class="cls-8" d="M64.61,283.93l-6.18,10.56h1.83l-4.66,7.72h3l-4.58,7.72H75.42l-4.58-7.72h2.78L69,294.49h1.82Z"/><path id="Combined-Shape-2" data-name="Combined-Shape" class="cls-9" d="M76.7,291.91l-4.37,7.47h1l-3.09,5.15h2.17l-3.2,5.4H84.17l-3.2-5.4h1.65l-3.08-5.15h1.54Z"/><path id="Combined-Shape-3" data-name="Combined-Shape" class="cls-9" d="M54.05,291.91l-4.37,7.47h1l-3.09,5.15h2.17l-3.2,5.4H61.52l-3.2-5.4H60l-3.09-5.15h1.55Z"/><path id="Combined-Shape-4" data-name="Combined-Shape" class="cls-8" d="M85.46,291.66l-4.38,7.46h1.17L79,304.53h2.17l-3.2,5.4H92.92l-3.2-5.4h1.91l-3.23-5.41h1.43Z"/><path id="Combined-Shape-5" data-name="Combined-Shape" class="cls-9" d="M97.42,284.19l-6.3,10.56h1.69l-4.52,7.46h3l-4.58,7.72h21.37l-4.58-7.72h2.52l-4.52-7.46h2.2Z"/></g><g id="Trees-2" data-name="Trees"><path id="Combined-Shape-6" data-name="Combined-Shape" class="cls-10" d="M202.06,283.93l-6.18,10.56h1.83l-4.66,7.72h3l-4.58,7.72h21.37l-4.58-7.72h2.78l-4.66-7.72h1.82Z"/><path id="Combined-Shape-7" data-name="Combined-Shape" class="cls-11" d="M214.15,291.91l-4.37,7.47h1l-3.09,5.15h2.17l-3.2,5.4h14.93l-3.2-5.4h1.65L217,299.38h1.54Z"/><path id="Combined-Shape-8" data-name="Combined-Shape" class="cls-11" d="M191.5,291.91l-4.37,7.47h1l-3.09,5.15h2.17l-3.2,5.4H199l-3.2-5.4h1.65l-3.09-5.15h1.55Z"/><path id="Combined-Shape-9" data-name="Combined-Shape" class="cls-10" d="M222.91,291.66l-4.38,7.46h1.17l-3.23,5.41h2.17l-3.2,5.4h14.93l-3.2-5.4h1.91l-3.23-5.41h1.43Z"/><path id="Combined-Shape-10" data-name="Combined-Shape" class="cls-11" d="M234.88,284.19l-6.31,10.56h1.69l-4.52,7.46h3l-4.58,7.72h21.37L241,302.21h2.52L239,294.75h2.2Z"/></g><g id="Trees-3" data-name="Trees"><path id="Tree" class="cls-8" d="M25.48,283.93,19.3,294.49h1.83l-4.66,7.72h3l-4.58,7.72H36.29l-4.58-7.72h2.78l-4.66-7.72h1.83Z"/><path id="Tree-2" data-name="Tree" class="cls-9" d="M31.15,291.91l-4.38,7.47h1l-3.09,5.15h2.17l-3.2,5.4H38.61l-3.2-5.4h1.66L34,299.38h1.54Z"/><polygon id="Triangle" class="cls-9" points="45.69 291.91 51.74 309.93 39.64 309.93 45.69 291.91"/><polygon id="Triangle-2" data-name="Triangle" class="cls-9" points="39.12 296.03 43.76 309.93 34.49 309.93 39.12 296.03"/><polygon id="Triangle-3" data-name="Triangle" class="cls-9" points="13.38 299.12 16.99 309.93 9.78 309.93 13.38 299.12"/><polygon id="Triangle-4" data-name="Triangle" class="cls-9" points="7.21 296.81 11.58 309.93 2.83 309.93 7.21 296.81"/></g><g id="Trees-4" data-name="Trees"><g id="Group-3-Copy-3"><path id="Tree-3" data-name="Tree" class="cls-8" d="M601,283.93l-6.17,10.56h1.82L592,302.21h3l-4.58,7.72h21.36l-4.57-7.72H610l-4.66-7.72h1.83Z"/><path id="Tree-4" data-name="Tree" class="cls-9" d="M606.69,291.91l-4.38,7.47h1l-3.09,5.15h2.17l-3.2,5.4h14.93l-3.2-5.4h1.66l-3.09-5.15h1.54Z"/></g><polygon id="Tree-5" data-name="Tree" class="cls-9" points="621.23 291.91 627.28 309.93 615.18 309.93 621.23 291.91"/><polygon id="Tree-6" data-name="Tree" class="cls-8" points="585.84 296.81 590.21 309.93 581.46 309.93 585.84 296.81"/><polygon id="Tree-7" data-name="Tree" class="cls-9" points="631.14 289.86 637.83 309.93 624.45 309.93 631.14 289.86"/></g><g id="Trees-5" data-name="Trees"><g id="Group-3-Copy-3-2" data-name="Group-3-Copy-3"><path id="Tree-8" data-name="Tree" class="cls-8" d="M546.63,279.82,539.45,292h2.12L536.15,301h3.53l-5.32,8.94H559.2L553.88,301h3.23L551.69,292h2.13Z"/><path id="Tree-9" data-name="Tree" class="cls-9" d="M553.22,289.06l-5.09,8.65h1.19l-3.59,6h2.53l-3.72,6.26H561.9l-3.72-6.26h1.92l-3.59-6h1.8Z"/></g><polygon id="Tree-10" data-name="Tree" class="cls-9" points="570.26 289.08 577.34 309.93 563.18 309.93 570.26 289.08"/><polygon id="Tree-11" data-name="Tree" class="cls-11" points="529.08 294.75 534.1 309.93 524.06 309.93 529.08 294.75"/><polygon id="Tree-12" data-name="Tree" class="cls-9" points="581.72 286.77 589.44 309.93 574 309.93 581.72 286.77"/></g><g id="Trees-6" data-name="Trees"><path id="Tree-13" data-name="Tree" class="cls-12" d="M494.57,287.8l5.21,9h-1.54l3.93,6.58h-2.56l3.86,6.57h-18l3.86-6.57H487l3.93-6.58h-1.54Z"/><path id="Tree-14" data-name="Tree" class="cls-11" d="M489.7,294.49l3.7,6.4h-.87l2.6,4.41H493.3l2.7,4.63H483.39l2.71-4.63h-1.4l2.61-4.41H486Z"/><path id="Tree-15" data-name="Tree" class="cls-10" d="M504,283.93l-6.17,10.56h1.82L495,302.21h3l-4.58,7.72h21.36l-4.57-7.72H513l-4.66-7.72h1.83Z"/><path id="Tree-16" data-name="Tree" class="cls-11" d="M516.08,291.91l-4.37,7.47h1l-3.09,5.15h2.17l-3.2,5.4h14.93l-3.2-5.4H522l-3.09-5.15h1.55Z"/><path id="Tree-17" data-name="Tree" class="cls-12" d="M524.83,291.66l-4.37,7.46h1.17l-3.23,5.41h2.17l-3.2,5.4H532.3l-3.2-5.4H531l-3.23-5.41h1.43Z"/><path id="Tree-18" data-name="Tree" class="cls-9" d="M536.8,284.19l-6.3,10.56h1.68l-4.52,7.46h3l-4.58,7.72h21.36l-4.57-7.72h2.51l-4.51-7.46h2.2Z"/></g><g id="Trees-7" data-name="Trees"><path id="Tree-19" data-name="Tree" class="cls-10" d="M415,287.8l5.21,9H418.7l3.93,6.58h-2.56l3.86,6.57h-18l3.86-6.57h-2.34l3.92-6.58h-1.54Z"/><path id="Tree-20" data-name="Tree" class="cls-11" d="M410.16,294.49l3.7,6.4H413l2.61,4.41h-1.83l2.7,4.63H403.86l2.7-4.63h-1.4l2.61-4.41h-1.3Z"/><path id="Tree-21" data-name="Tree" class="cls-10" d="M424.45,283.93l-6.18,10.56h1.83l-4.66,7.72h3l-4.58,7.72h21.37l-4.58-7.72h2.78l-4.66-7.72h1.83Z"/><path id="Tree-22" data-name="Tree" class="cls-11" d="M436.55,291.91l-4.38,7.47h1l-3.09,5.15h2.17l-3.2,5.4H444l-3.2-5.4h1.66l-3.09-5.15h1.54Z"/><path id="Tree-23" data-name="Tree" class="cls-12" d="M445.3,291.66l-4.38,7.46h1.17l-3.23,5.41H441l-3.2,5.4h14.93l-3.2-5.4h1.91l-3.23-5.41h1.43Z"/><path id="Tree-24" data-name="Tree" class="cls-11" d="M457.27,284.19,451,294.75h1.69l-4.52,7.46h3l-4.58,7.72H468l-4.58-7.72h2.52l-4.52-7.46h2.2Z"/></g></g><g id="Building_Skyscraper_3" data-name="Building/Skyscraper/3"><rect id="Rectangle-Copy" class="cls-13" x="204.89" y="272.41" width="52.78" height="76.89"/><rect id="Rectangle-Copy-3" class="cls-14" x="210.22" y="214.05" width="45.68" height="58.36"/><rect id="Rectangle-Copy-5" class="cls-14" x="214.78" y="157.46" width="39.59" height="56.84"/><rect id="Rectangle-Copy-20" class="cls-14" x="218.59" y="107.73" width="34.51" height="49.23"/><rect id="Rectangle-Copy-2" class="cls-7" x="257.67" y="272.41" width="26.39" height="76.89"/><rect id="Rectangle-Copy-4" class="cls-7" x="255.89" y="214.05" width="22.84" height="58.36"/><rect id="Rectangle-Copy-6" class="cls-7" x="254.37" y="157.46" width="19.79" height="56.84"/><rect id="Rectangle-Copy-21" class="cls-7" x="253.1" y="107.73" width="17.26" height="49.23"/><rect id="Rectangle-Copy-46" class="cls-15" x="208.95" y="330.78" width="44.66" height="18.52"/><rect id="Rectangle-Copy-23" class="cls-6" x="260.71" y="218.36" width="16.75" height="10.15"/><rect id="Rectangle-Copy-24" class="cls-6" x="258.43" y="164.82" width="14.72" height="8.63"/><rect id="Rectangle-Copy-26" class="cls-16" x="260.71" y="237.65" width="16.75" height="10.15"/><rect id="Rectangle-Copy-34" class="cls-17" x="258.43" y="181.57" width="14.72" height="8.63"/><rect id="Rectangle-Copy-36" class="cls-17" x="256.65" y="128.79" width="12.69" height="7.61"/><rect id="Rectangle-Copy-27" class="cls-16" x="260.71" y="256.94" width="16.75" height="10.15"/><rect id="Rectangle-Copy-35" class="cls-17" x="258.43" y="198.32" width="14.72" height="8.63"/><rect id="Rectangle-Copy-37" class="cls-17" x="256.65" y="143.25" width="12.69" height="7.61"/><rect id="Rectangle-Copy-28" class="cls-16" x="263.25" y="276.98" width="19.03" height="11.67"/><rect id="Rectangle-Copy-31" class="cls-16" x="263.25" y="294.49" width="19.03" height="11.67"/><rect id="Rectangle-Copy-32" class="cls-16" x="263.25" y="311.75" width="19.03" height="11.67"/><rect id="Rectangle-Copy-33" class="cls-16" x="263.25" y="330.78" width="19.03" height="18.52"/><rect id="Rectangle-Copy-7" class="cls-7" x="213.77" y="218.36" width="38.57" height="10.15"/><rect id="Rectangle-Copy-10" class="cls-6" x="217.83" y="164.82" width="33.5" height="8.63"/><rect id="Rectangle-Copy-8" class="cls-7" x="213.77" y="237.65" width="38.57" height="10.15"/><rect id="Rectangle-Copy-11" class="cls-7" x="217.83" y="181.57" width="33.5" height="8.63"/><rect id="Rectangle-Copy-38" class="cls-7" x="221.38" y="128.79" width="28.93" height="7.61"/><rect id="Rectangle-Copy-9" class="cls-7" x="213.77" y="256.94" width="38.57" height="10.15"/><rect id="Rectangle-Copy-13" class="cls-7" x="217.83" y="198.32" width="33.5" height="8.63"/><rect id="Rectangle-Copy-39" class="cls-7" x="221.38" y="143.25" width="28.93" height="7.61"/><rect id="Rectangle-Copy-16" class="cls-7" x="208.95" y="276.98" width="44.66" height="11.67"/><rect id="Rectangle-Copy-17" class="cls-7" x="208.95" y="294.49" width="44.66" height="11.67"/><rect id="Rectangle-Copy-18" class="cls-7" x="208.95" y="311.75" width="44.66" height="11.67"/><rect id="Rectangle-Copy-48" class="cls-6" x="241.43" y="330.78" width="12.18" height="18.52"/><rect id="Rectangle-Copy-12" class="cls-18" x="208.44" y="212.53" width="49.23" height="3.55"/><rect id="Rectangle-Copy-14" class="cls-18" x="213.26" y="155.94" width="42.63" height="3.05"/><rect id="Rectangle-Copy-29" class="cls-15" x="202.86" y="270.38" width="56.84" height="4.06"/><rect id="Rectangle-Copy-15" class="cls-17" x="257.67" y="212.53" width="22.84" height="3.55"/><rect id="Rectangle-Copy-19" class="cls-17" x="255.89" y="155.94" width="19.79" height="3.05"/><rect id="Rectangle-Copy-30" class="cls-16" x="259.7" y="270.38" width="26.39" height="4.06"/><rect id="Rectangle-Copy-25" class="cls-6" x="256.65" y="114.07" width="12.69" height="7.61"/><rect id="Rectangle-Copy-22" class="cls-6" x="221.38" y="114.07" width="28.93" height="7.61"/><rect id="Rectangle-Copy-40" class="cls-18" x="217.32" y="106.21" width="37.05" height="2.54"/><rect id="Rectangle-Copy-41" class="cls-17" x="254.37" y="106.21" width="17.26" height="2.54"/></g><g id="Building_Skyscraper_4" data-name="Building/Skyscraper/4"><rect id="Rectangle-Copy-4-2" data-name="Rectangle-Copy-4" class="cls-7" x="323.24" y="79.84" width="24.94" height="107.61"/><rect id="Rectangle-Copy-2-2" data-name="Rectangle-Copy" class="cls-19" x="284.04" y="187.45" width="54.64" height="118.54"/><polygon id="Rectangle-Copy-3-2" data-name="Rectangle-Copy-3" class="cls-5" points="284.04 79.84 323.24 79.84 323.24 187.45 290.3 187.45 284.04 187.45 284.04 79.84"/><rect id="Rectangle-Copy-2-3" data-name="Rectangle-Copy-2" class="cls-7" x="338.68" y="187.45" width="24.71" height="118.54"/><rect id="Rectangle-Copy-28-2" data-name="Rectangle-Copy-28" class="cls-17" x="345.33" y="191.73" width="11.4" height="81.48"/><rect id="Rectangle-Copy-27-2" data-name="Rectangle-Copy-27" class="cls-6" x="330.12" y="136.85" width="13.3" height="45.61"/><rect id="Rectangle-Copy-30-2" data-name="Rectangle-Copy-30" class="cls-7" x="305.66" y="136.85" width="11.17" height="45.61"/><rect id="Rectangle-Copy-31-2" data-name="Rectangle-Copy-31" class="cls-6" x="288.08" y="136.85" width="11.17" height="45.61"/><rect id="Rectangle-Copy-29-2" data-name="Rectangle-Copy-29" class="cls-17" x="330.12" y="83.17" width="13.3" height="45.61"/><rect id="Rectangle-Copy-7-2" data-name="Rectangle-Copy-7" class="cls-7" x="288.08" y="191.73" width="11.17" height="80.77"/><rect id="Rectangle-Copy-10-2" data-name="Rectangle-Copy-10" class="cls-7" x="288.08" y="83.17" width="11.17" height="43.71"/><rect id="Rectangle-Copy-12-2" data-name="Rectangle-Copy-12" class="cls-7" x="305.66" y="83.17" width="11.17" height="43.71"/><rect id="Rectangle-Copy-13-2" data-name="Rectangle-Copy-13" class="cls-7" x="305.66" y="191.73" width="11.17" height="81.48"/><rect id="Rectangle-Copy-15-2" data-name="Rectangle-Copy-15" class="cls-7" x="323.24" y="191.73" width="11.17" height="81.48"/><rect id="Rectangle-Copy-48-2" data-name="Rectangle-Copy-48" class="cls-7" x="305.66" y="282" width="11.17" height="23.99"/><rect id="Rectangle-Copy-14-2" data-name="Rectangle-Copy-14" class="cls-18" x="280.48" y="78.41" width="42.05" height="2.85"/><rect id="Rectangle-Copy-19-2" data-name="Rectangle-Copy-19" class="cls-14" x="322.52" y="78.41" width="28.51" height="2.85"/></g><g id="Building_Large_4" data-name="Building/Large/4"><g id="Group"><rect id="Rectangle-2" data-name="Rectangle" class="cls-7" x="356.44" y="157.23" width="63.47" height="136.64"/><rect id="Rectangle-3" data-name="Rectangle" class="cls-7" x="419.91" y="157.23" width="22.92" height="136.64"/><rect id="Rectangle-4" data-name="Rectangle" class="cls-19" x="359.96" y="278.01" width="10.58" height="15.87"/><rect id="Rectangle-5" data-name="Rectangle" class="cls-19" x="359.96" y="191.61" width="10.58" height="12.34"/><rect id="Rectangle-6" data-name="Rectangle" class="cls-7" x="359.96" y="233.93" width="10.58" height="12.34"/><rect id="Rectangle-7" data-name="Rectangle" class="cls-19" x="359.96" y="166.05" width="10.58" height="16.75"/><rect id="Rectangle-8" data-name="Rectangle" class="cls-19" x="359.96" y="212.77" width="10.58" height="12.34"/><rect id="Rectangle-9" data-name="Rectangle" class="cls-19" x="374.07" y="191.61" width="10.58" height="12.34"/><rect id="Rectangle-10" data-name="Rectangle" class="cls-19" x="374.07" y="233.93" width="10.58" height="12.34"/><rect id="Rectangle-11" data-name="Rectangle" class="cls-19" x="374.07" y="166.05" width="10.58" height="16.75"/><rect id="Rectangle-12" data-name="Rectangle" class="cls-19" x="374.07" y="212.77" width="10.58" height="12.34"/><rect id="Rectangle-13" data-name="Rectangle" class="cls-19" x="388.17" y="191.61" width="10.58" height="12.34"/><rect id="Rectangle-14" data-name="Rectangle" class="cls-19" x="402.28" y="191.61" width="10.58" height="12.34"/><rect id="Rectangle-15" data-name="Rectangle" class="cls-19" x="388.17" y="233.93" width="10.58" height="12.34"/><rect id="Rectangle-16" data-name="Rectangle" class="cls-19" x="402.28" y="233.93" width="10.58" height="12.34"/><rect id="Rectangle-17" data-name="Rectangle" class="cls-19" x="388.17" y="166.05" width="10.58" height="16.75"/><rect id="Rectangle-18" data-name="Rectangle" class="cls-17" x="402.28" y="166.05" width="10.58" height="16.75"/><rect id="Rectangle-19" data-name="Rectangle" class="cls-19" x="388.17" y="212.77" width="10.58" height="12.34"/><rect id="Rectangle-20" data-name="Rectangle" class="cls-19" x="402.28" y="212.77" width="10.58" height="12.34"/><rect id="Rectangle-21" data-name="Rectangle" class="cls-6" x="425.86" y="191.61" width="10.58" height="12.34"/><rect id="Rectangle-22" data-name="Rectangle" class="cls-13" x="425.86" y="233.93" width="10.58" height="12.34"/><rect id="Rectangle-23" data-name="Rectangle" class="cls-14" x="425.86" y="166.05" width="10.58" height="16.75"/><rect id="Rectangle-24" data-name="Rectangle" class="cls-14" x="425.86" y="212.77" width="10.58" height="12.34"/><rect id="Rectangle-25" data-name="Rectangle" class="cls-19" x="359.96" y="255.09" width="10.58" height="12.34"/><rect id="Rectangle-26" data-name="Rectangle" class="cls-19" x="374.07" y="255.09" width="10.58" height="12.34"/><rect id="Rectangle-27" data-name="Rectangle" class="cls-19" x="388.17" y="255.09" width="10.58" height="12.34"/><rect id="Rectangle-28" data-name="Rectangle" class="cls-19" x="402.28" y="255.09" width="10.58" height="12.34"/><rect id="Rectangle-29" data-name="Rectangle" class="cls-13" x="425.86" y="255.09" width="10.58" height="12.34"/><rect id="Rectangle-30" data-name="Rectangle" class="cls-19" x="374.07" y="278.01" width="38.79" height="12.34"/><rect id="Rectangle-31" data-name="Rectangle" class="cls-13" x="426.08" y="278.01" width="10.58" height="12.34"/><rect id="Rectangle-32" data-name="Rectangle" class="cls-18" x="354.67" y="153.7" width="67" height="7.05"/><rect id="Rectangle-33" data-name="Rectangle" class="cls-14" x="421.67" y="153.7" width="22.92" height="7.05"/></g><g id="Group-2"><rect id="Rectangle-34" data-name="Rectangle" class="cls-18" x="361.07" y="271.84" width="51.79" height="7.27"/><path id="Path" class="cls-3" d="M410.93,271.84h1.93v7.27H403.6A7.3,7.3,0,0,1,410.93,271.84Z"/><path id="Path-2" data-name="Path" class="cls-2" d="M360.68,271.84h1.93v7.27h-9.26A7.3,7.3,0,0,1,360.68,271.84Z"/></g></g><g id="Building_Large_4-2" data-name="Building/Large/4"><g id="Group-2-2" data-name="Group"><rect id="Rectangle-35" data-name="Rectangle" class="cls-14" x="107.21" y="221.48" width="63.47" height="136.64"/><rect id="Rectangle-36" data-name="Rectangle" class="cls-7" x="170.68" y="221.48" width="22.92" height="136.64"/><rect id="Rectangle-37" data-name="Rectangle" class="cls-19" x="110.73" y="342.25" width="10.58" height="15.87"/><rect id="Rectangle-38" data-name="Rectangle" class="cls-19" x="110.73" y="255.86" width="10.58" height="12.34"/><rect id="Rectangle-39" data-name="Rectangle" class="cls-7" x="110.73" y="298.18" width="10.58" height="12.34"/><rect id="Rectangle-40" data-name="Rectangle" class="cls-19" x="110.73" y="230.29" width="10.58" height="16.75"/><rect id="Rectangle-41" data-name="Rectangle" class="cls-19" x="110.73" y="277.02" width="10.58" height="12.34"/><rect id="Rectangle-42" data-name="Rectangle" class="cls-19" x="124.84" y="255.86" width="10.58" height="12.34"/><rect id="Rectangle-43" data-name="Rectangle" class="cls-19" x="124.84" y="298.18" width="10.58" height="12.34"/><rect id="Rectangle-44" data-name="Rectangle" class="cls-19" x="124.84" y="230.29" width="10.58" height="16.75"/><rect id="Rectangle-45" data-name="Rectangle" class="cls-19" x="124.84" y="277.02" width="10.58" height="12.34"/><rect id="Rectangle-46" data-name="Rectangle" class="cls-19" x="138.94" y="255.86" width="10.58" height="12.34"/><rect id="Rectangle-47" data-name="Rectangle" class="cls-19" x="153.05" y="255.86" width="10.58" height="12.34"/><rect id="Rectangle-48" data-name="Rectangle" class="cls-19" x="138.94" y="298.18" width="10.58" height="12.34"/><rect id="Rectangle-49" data-name="Rectangle" class="cls-19" x="153.05" y="298.18" width="10.58" height="12.34"/><rect id="Rectangle-50" data-name="Rectangle" class="cls-19" x="138.94" y="230.29" width="10.58" height="16.75"/><rect id="Rectangle-51" data-name="Rectangle" class="cls-7" x="153.05" y="230.29" width="10.58" height="16.75"/><rect id="Rectangle-52" data-name="Rectangle" class="cls-19" x="138.94" y="277.02" width="10.58" height="12.34"/><rect id="Rectangle-53" data-name="Rectangle" class="cls-19" x="153.05" y="277.02" width="10.58" height="12.34"/><rect id="Rectangle-54" data-name="Rectangle" class="cls-6" x="176.63" y="255.86" width="10.58" height="12.34"/><rect id="Rectangle-55" data-name="Rectangle" class="cls-13" x="176.63" y="298.18" width="10.58" height="12.34"/><rect id="Rectangle-56" data-name="Rectangle" class="cls-13" x="176.63" y="230.29" width="10.58" height="16.75"/><rect id="Rectangle-57" data-name="Rectangle" class="cls-13" x="176.63" y="277.02" width="10.58" height="12.34"/><rect id="Rectangle-58" data-name="Rectangle" class="cls-19" x="110.73" y="319.33" width="10.58" height="12.34"/><rect id="Rectangle-59" data-name="Rectangle" class="cls-19" x="124.84" y="319.33" width="10.58" height="12.34"/><rect id="Rectangle-60" data-name="Rectangle" class="cls-19" x="138.94" y="319.33" width="10.58" height="12.34"/><rect id="Rectangle-61" data-name="Rectangle" class="cls-19" x="153.05" y="319.33" width="10.58" height="12.34"/><rect id="Rectangle-62" data-name="Rectangle" class="cls-13" x="176.63" y="319.33" width="10.58" height="12.34"/><rect id="Rectangle-63" data-name="Rectangle" class="cls-19" x="124.84" y="342.25" width="38.79" height="12.34"/><rect id="Rectangle-64" data-name="Rectangle" class="cls-13" x="176.85" y="342.25" width="10.58" height="12.34"/><rect id="Rectangle-65" data-name="Rectangle" class="cls-18" x="105.44" y="217.95" width="67" height="7.05"/><rect id="Rectangle-66" data-name="Rectangle" class="cls-14" x="172.44" y="217.95" width="22.92" height="7.05"/></g><g id="Group-2-3" data-name="Group-2"><rect id="Rectangle-67" data-name="Rectangle" class="cls-18" x="111.83" y="336.08" width="51.79" height="7.27"/><path id="Path-3" data-name="Path" class="cls-8" d="M161.7,336.08h1.93v7.28h-9.26A7.3,7.3,0,0,1,161.7,336.08Z"/><path id="Path-4" data-name="Path" class="cls-2" d="M111.45,336.08h1.93v7.28h-9.26A7.3,7.3,0,0,1,111.45,336.08Z"/></g></g><g id="Building_Large_4-3" data-name="Building/Large/4"><g id="Group-3" data-name="Group"><rect id="Rectangle-68" data-name="Rectangle" class="cls-7" x="174.77" y="221.48" width="63.47" height="136.64"/><rect id="Rectangle-69" data-name="Rectangle" class="cls-17" x="238.25" y="221.48" width="22.92" height="136.64"/><rect id="Rectangle-70" data-name="Rectangle" class="cls-19" x="178.3" y="342.25" width="10.58" height="15.87"/><rect id="Rectangle-71" data-name="Rectangle" class="cls-19" x="178.3" y="255.86" width="10.58" height="12.34"/><rect id="Rectangle-72" data-name="Rectangle" class="cls-7" x="178.3" y="298.18" width="10.58" height="12.34"/><rect id="Rectangle-73" data-name="Rectangle" class="cls-19" x="178.3" y="230.29" width="10.58" height="16.75"/><rect id="Rectangle-74" data-name="Rectangle" class="cls-19" x="178.3" y="277.02" width="10.58" height="12.34"/><rect id="Rectangle-75" data-name="Rectangle" class="cls-19" x="192.41" y="255.86" width="10.58" height="12.34"/><rect id="Rectangle-76" data-name="Rectangle" class="cls-19" x="192.41" y="298.18" width="10.58" height="12.34"/><rect id="Rectangle-77" data-name="Rectangle" class="cls-19" x="192.41" y="230.29" width="10.58" height="16.75"/><rect id="Rectangle-78" data-name="Rectangle" class="cls-19" x="192.41" y="277.02" width="10.58" height="12.34"/><rect id="Rectangle-79" data-name="Rectangle" class="cls-19" x="206.51" y="255.86" width="10.58" height="12.34"/><rect id="Rectangle-80" data-name="Rectangle" class="cls-19" x="220.62" y="255.86" width="10.58" height="12.34"/><rect id="Rectangle-81" data-name="Rectangle" class="cls-19" x="206.51" y="298.18" width="10.58" height="12.34"/><rect id="Rectangle-82" data-name="Rectangle" class="cls-19" x="220.62" y="298.18" width="10.58" height="12.34"/><rect id="Rectangle-83" data-name="Rectangle" class="cls-19" x="206.51" y="230.29" width="10.58" height="16.75"/><rect id="Rectangle-84" data-name="Rectangle" class="cls-7" x="220.62" y="230.29" width="10.58" height="16.75"/><rect id="Rectangle-85" data-name="Rectangle" class="cls-19" x="206.51" y="277.02" width="10.58" height="12.34"/><rect id="Rectangle-86" data-name="Rectangle" class="cls-19" x="220.62" y="277.02" width="10.58" height="12.34"/><rect id="Rectangle-87" data-name="Rectangle" class="cls-6" x="244.2" y="255.86" width="10.58" height="12.34"/><rect id="Rectangle-88" data-name="Rectangle" class="cls-7" x="244.2" y="298.18" width="10.58" height="12.34"/><rect id="Rectangle-89" data-name="Rectangle" class="cls-7" x="244.2" y="230.29" width="10.58" height="16.75"/><rect id="Rectangle-90" data-name="Rectangle" class="cls-7" x="244.2" y="277.02" width="10.58" height="12.34"/><rect id="Rectangle-91" data-name="Rectangle" class="cls-19" x="178.3" y="319.33" width="10.58" height="12.34"/><rect id="Rectangle-92" data-name="Rectangle" class="cls-19" x="192.41" y="319.33" width="10.58" height="12.34"/><rect id="Rectangle-93" data-name="Rectangle" class="cls-19" x="206.51" y="319.33" width="10.58" height="12.34"/><rect id="Rectangle-94" data-name="Rectangle" class="cls-19" x="220.62" y="319.33" width="10.58" height="12.34"/><rect id="Rectangle-95" data-name="Rectangle" class="cls-7" x="244.2" y="319.33" width="10.58" height="12.34"/><rect id="Rectangle-96" data-name="Rectangle" class="cls-19" x="192.41" y="342.25" width="38.79" height="12.34"/><rect id="Rectangle-97" data-name="Rectangle" class="cls-7" x="244.42" y="342.25" width="10.58" height="12.34"/><rect id="Rectangle-98" data-name="Rectangle" class="cls-18" x="173.01" y="217.95" width="67" height="7.05"/><rect id="Rectangle-99" data-name="Rectangle" class="cls-7" x="240.01" y="217.95" width="22.92" height="7.05"/></g><g id="Group-2-4" data-name="Group-2"><rect id="Rectangle-100" data-name="Rectangle" class="cls-18" x="179.4" y="336.08" width="51.79" height="7.27"/><path id="Path-5" data-name="Path" class="cls-4" d="M229.27,336.08h1.93v7.28h-9.26A7.3,7.3,0,0,1,229.27,336.08Z"/><path id="Path-6" data-name="Path" class="cls-2" d="M179,336.08H181v7.28h-9.26A7.3,7.3,0,0,1,179,336.08Z"/></g></g><g id="Transport_Pickup_Truck" data-name="Transport/Pickup Truck"><g id="Group-4" data-name="Group"><path id="Rectangle-101" data-name="Rectangle" class="cls-8" d="M164.35,363.39h49.18a2,2,0,0,0,2-1.95v-3.18a5.13,5.13,0,0,0-5.13-5.12H162.92a1,1,0,0,0-1,1,.76.76,0,0,0,0,.15l1.19,8.09A1.22,1.22,0,0,0,164.35,363.39Z"/><path id="Rectangle-102" data-name="Rectangle" class="cls-8" d="M186.16,353.14h14.72L199.36,347a1.21,1.21,0,0,0-1.18-.93H187.82a1.22,1.22,0,0,0-1.22,1.13l-.44,5.95Z"/><path id="Rectangle-103" data-name="Rectangle" class="cls-4" d="M168.74,356.07h7.69a4.63,4.63,0,0,1,4.64,4.63v3.42a1.22,1.22,0,0,1-1.22,1.22H165.28a.73.73,0,0,1-.73-.73.22.22,0,0,1,0-.08l.54-5.19A3.66,3.66,0,0,1,168.74,356.07Z"/><path id="Rectangle-Copy-3-3" data-name="Rectangle-Copy" class="cls-4" d="M203,356.07h9.1a4.63,4.63,0,0,1,4.64,4.63v3.91a.74.74,0,0,1-.74.73H199.59a.73.73,0,0,1-.73-.73,1.23,1.23,0,0,1,0-.19l1.73-6.53A2.43,2.43,0,0,1,203,356.07Z"/><path id="Rectangle-104" data-name="Rectangle" class="cls-1" d="M171.14,359.24h3.34a3.66,3.66,0,0,1,3.66,3.66v2.44h-11l.34-2.88A3.66,3.66,0,0,1,171.14,359.24Z"/><path id="Rectangle-Copy-2-4" data-name="Rectangle-Copy-2" class="cls-1" d="M207.67,359.24h2.93a3.66,3.66,0,0,1,3.66,3.66v2.44H204V362.9A3.66,3.66,0,0,1,207.67,359.24Z"/><path id="Combined-Shape-11" data-name="Combined-Shape" class="cls-4" d="M200.88,353.14l-1.39-5.62h-2.2l.13,5.28a.46.46,0,0,0,.17.24.51.51,0,0,0,.29.1Z"/><circle id="Oval" class="cls-7" cx="172.77" cy="365.1" r="3.91"/><circle id="Oval-2" data-name="Oval" class="cls-18" cx="172.77" cy="365.1" r="1.95"/><circle id="Oval-3" data-name="Oval" class="cls-7" cx="209.38" cy="365.1" r="3.91"/><circle id="Oval-4" data-name="Oval" class="cls-18" cx="209.38" cy="365.1" r="1.95"/><path id="Rectangle-105" data-name="Rectangle" class="cls-4" d="M188.59,347.52h7.61a.49.49,0,0,1,.49.49v4.64a.49.49,0,0,1-.49.49h-8a.49.49,0,0,1-.49-.49s0,0,0,0l.4-4.64A.49.49,0,0,1,188.59,347.52Z"/></g></g><g id="Building_Large_5" data-name="Building/Large/5"><rect id="Rectangle-106" data-name="Rectangle" class="cls-7" x="390.28" y="221.6" width="62.58" height="136.41"/><rect id="Rectangle-107" data-name="Rectangle" class="cls-14" x="393.76" y="333.58" width="52.15" height="24.42"/><path id="Rectangle-108" data-name="Rectangle" class="cls-1" d="M404,323.24H435.7a10.28,10.28,0,0,1,10.21,10.34H393.76A10.28,10.28,0,0,1,404,323.24Z"/><rect id="Rectangle-109" data-name="Rectangle" class="cls-7" x="452.87" y="221.6" width="22.6" height="136.41"/><path id="Rectangle-110" data-name="Rectangle" class="cls-1" d="M419.83,336.88a5.24,5.24,0,0,1,5.22,5.28V358H414.62V342.16A5.24,5.24,0,0,1,419.83,336.88Z"/><path id="Rectangle-Copy-4-3" data-name="Rectangle-Copy" class="cls-1" d="M405.93,336.88a5.24,5.24,0,0,1,5.21,5.28V358H400.71V342.16A5.25,5.25,0,0,1,405.93,336.88Z"/><path id="Rectangle-Copy-2-5" data-name="Rectangle-Copy-2" class="cls-1" d="M433.74,336.88a5.25,5.25,0,0,1,5.22,5.28V358H428.53V342.16A5.24,5.24,0,0,1,433.74,336.88Z"/><path id="Rectangle-Copy-3-4" data-name="Rectangle-Copy-3" class="cls-20" d="M464,336.88a5.24,5.24,0,0,1,5.21,5.28V358H458.73V342.16A5.25,5.25,0,0,1,464,336.88Z"/><path id="Rectangle-111" data-name="Rectangle" class="cls-5" d="M399,230.4a5.25,5.25,0,0,1,5.22,5.28v83.6H393.76v-83.6A5.24,5.24,0,0,1,399,230.4Z"/><path id="Rectangle-112" data-name="Rectangle" class="cls-5" d="M412.88,230.4a5.25,5.25,0,0,1,5.22,5.28v83.6H407.67v-83.6A5.24,5.24,0,0,1,412.88,230.4Z"/><path id="Rectangle-113" data-name="Rectangle" class="cls-5" d="M426.79,230.4a5.24,5.24,0,0,1,5.21,5.28v83.6H421.57v-83.6A5.25,5.25,0,0,1,426.79,230.4Z"/><path id="Rectangle-114" data-name="Rectangle" class="cls-9" d="M440.7,230.4a5.24,5.24,0,0,1,5.21,5.28v83.6H435.48v-83.6A5.25,5.25,0,0,1,440.7,230.4Z"/><path id="Rectangle-115" data-name="Rectangle" class="cls-3" d="M464,230.4a5.24,5.24,0,0,1,5.21,5.28v83.6H458.73v-83.6A5.25,5.25,0,0,1,464,230.4Z"/><rect id="Rectangle-116" data-name="Rectangle" class="cls-17" x="388.54" y="218.08" width="66.06" height="7.04"/><rect id="Rectangle-117" data-name="Rectangle" class="cls-16" x="454.6" y="218.08" width="22.6" height="7.04"/></g><g id="Building_Large_5-2" data-name="Building/Large/5"><rect id="Rectangle-118" data-name="Rectangle" class="cls-7" x="452.47" y="221.57" width="62.58" height="136.41"/><rect id="Rectangle-119" data-name="Rectangle" class="cls-14" x="455.95" y="333.56" width="52.15" height="24.42"/><path id="Rectangle-120" data-name="Rectangle" class="cls-1" d="M466.16,323.22h31.73a10.28,10.28,0,0,1,10.21,10.34H456A10.28,10.28,0,0,1,466.16,323.22Z"/><rect id="Rectangle-121" data-name="Rectangle" class="cls-7" x="515.06" y="221.57" width="22.6" height="136.41"/><path id="Rectangle-122" data-name="Rectangle" class="cls-1" d="M482,336.86a5.24,5.24,0,0,1,5.21,5.28V358H476.81V342.14A5.25,5.25,0,0,1,482,336.86Z"/><path id="Rectangle-Copy-5-2" data-name="Rectangle-Copy" class="cls-1" d="M468.12,336.86a5.25,5.25,0,0,1,5.22,5.28V358H462.91V342.14A5.24,5.24,0,0,1,468.12,336.86Z"/><path id="Rectangle-Copy-2-6" data-name="Rectangle-Copy-2" class="cls-1" d="M495.94,336.86a5.24,5.24,0,0,1,5.21,5.28V358H490.72V342.14A5.25,5.25,0,0,1,495.94,336.86Z"/><path id="Rectangle-Copy-3-5" data-name="Rectangle-Copy-3" class="cls-1" d="M526.14,336.86a5.25,5.25,0,0,1,5.22,5.28V358H520.93V342.14A5.24,5.24,0,0,1,526.14,336.86Z"/><path id="Rectangle-123" data-name="Rectangle" class="cls-5" d="M461.17,230.37a5.25,5.25,0,0,1,5.21,5.28v83.61H456V235.65A5.26,5.26,0,0,1,461.17,230.37Z"/><path id="Rectangle-124" data-name="Rectangle" class="cls-5" d="M475.07,230.37a5.26,5.26,0,0,1,5.22,5.28v83.61H469.86V235.65A5.25,5.25,0,0,1,475.07,230.37Z"/><path id="Rectangle-125" data-name="Rectangle" class="cls-5" d="M489,230.37a5.26,5.26,0,0,1,5.22,5.28v83.61H483.77V235.65A5.25,5.25,0,0,1,489,230.37Z"/><path id="Rectangle-126" data-name="Rectangle" class="cls-9" d="M502.89,230.37a5.25,5.25,0,0,1,5.21,5.28v83.61H497.67V235.65A5.26,5.26,0,0,1,502.89,230.37Z"/><path id="Rectangle-127" data-name="Rectangle" class="cls-5" d="M526.14,230.37a5.26,5.26,0,0,1,5.22,5.28v83.61H520.93V235.65A5.25,5.25,0,0,1,526.14,230.37Z"/><rect id="Rectangle-128" data-name="Rectangle" class="cls-17" x="450.74" y="218.05" width="66.06" height="7.04"/><rect id="Rectangle-129" data-name="Rectangle" class="cls-14" x="516.8" y="218.05" width="22.6" height="7.04"/></g><g id="Transport_Sedan" data-name="Transport/Sedan"><g id="Group-5" data-name="Group"><path id="Rectangle-130" data-name="Rectangle" class="cls-4" d="M483.29,356h47.56l13,1.23a3.94,3.94,0,0,1,3.56,3.52l.36,3.55a1.06,1.06,0,0,1-.93,1.16H484.39a1.06,1.06,0,0,1-1.06-1l0-8.42Z"/><path id="Rectangle-131" data-name="Rectangle" class="cls-5" d="M485.67,348.68h38.9a.49.49,0,0,1,.4.2l5.88,7.16H483.29l1.35-6.52A1,1,0,0,1,485.67,348.68Z"/><path id="Combined-Shape-12" data-name="Combined-Shape" class="cls-8" d="M524.2,349.74a.8.8,0,0,1,.41.1c.07.05,1.8,2.11,5.19,6.2H517.19v-6.3Zm-8.33,6.3h-10a.91.91,0,0,1-.23,0,.79.79,0,0,1-.52-1h0l1.5-4.91a.54.54,0,0,1,.23-.27.8.8,0,0,1,.41-.1h8.58Z"/><path id="Combined-Shape-Copy" class="cls-8" d="M485.39,356a.61.61,0,0,1-.33-.1.51.51,0,0,1-.2-.28l1.08-5.29a.79.79,0,0,1,.77-.63H505a.26.26,0,0,1,.26.26.17.17,0,0,1,0,.07l-1.71,5.59h0a.54.54,0,0,1-.19.28.65.65,0,0,1-.34.1Z"/><circle id="Oval-5" data-name="Oval" class="cls-17" cx="497.74" cy="365.5" r="4.2"/><circle id="Oval-6" data-name="Oval" class="cls-18" cx="497.74" cy="365.5" r="2.1"/><circle id="Oval-7" data-name="Oval" class="cls-17" cx="535.32" cy="365.5" r="4.2"/><circle id="Oval-8" data-name="Oval" class="cls-18" cx="535.32" cy="365.5" r="2.1"/></g></g><g id="Transport_Mini" data-name="Transport/Mini"><g id="Group-6" data-name="Group"><path id="Rectangle-132" data-name="Rectangle" class="cls-5" d="M562.81,358.26h26.63a2,2,0,0,1,2,2V365a1,1,0,0,1-1,1H561.9a1,1,0,0,1-1-1,1.26,1.26,0,0,1,0-.28l1.87-6.44Z"/><path id="Rectangle-133" data-name="Rectangle" class="cls-2" d="M566.32,350.54h13.45a2,2,0,0,1,1.91,1.45l1.79,6.27H562.81l1.58-6.21A2,2,0,0,1,566.32,350.54Z"/><path id="Combined-Shape-13" data-name="Combined-Shape" class="cls-8" d="M579.94,352a.51.51,0,0,1,.3.1.5.5,0,0,1,.18.27h0l1.37,5.85H573V352ZM572,358.26h-6.83l-.17,0a.74.74,0,0,1-.56-.9h0l1.16-4.93a.55.55,0,0,1,.17-.27.57.57,0,0,1,.31-.1H572Z"/><circle id="Oval-9" data-name="Oval" class="cls-7" cx="566.55" cy="365.73" r="3.98"/><circle id="Oval-10" data-name="Oval" class="cls-18" cx="566.55" cy="365.73" r="1.99"/><circle id="Oval-11" data-name="Oval" class="cls-7" cx="585.96" cy="365.73" r="3.98"/><circle id="Oval-12" data-name="Oval" class="cls-18" cx="585.96" cy="365.73" r="1.99"/></g></g><g id="Sky_Sunny" data-name="Sky/Sunny"><circle id="Sun" class="cls-21" cx="169.95" cy="34.01" r="34.01"/><path id="Cloud" class="cls-2" d="M79.38,160.88a25.78,25.78,0,0,0-20.08,9.59,15.28,15.28,0,0,0-9-2.94,15.44,15.44,0,0,0-14.6,10.53,15.17,15.17,0,0,0-4.5-.67,15.47,15.47,0,0,0-15.41,15.52c0,.28,0,.55,0,.81H124.13a13.44,13.44,0,0,0-19.26-11.55A26,26,0,0,0,79.38,160.88Z"/><path id="Cloud-2" data-name="Cloud" class="cls-5" d="M165.88,166.57a18.17,18.17,0,0,1,18.18,18.17,18.17,18.17,0,0,1,15.68,9h-67a18.2,18.2,0,0,1,15.56-13.65A18.19,18.19,0,0,1,165.88,166.57Z"/><path id="Cloud-3" data-name="Cloud" class="cls-2" d="M579,122.08c7.83,0,14.38,5,16.06,11.7a17.53,17.53,0,0,1,7.21-1.52,16.66,16.66,0,0,1,14.8,8.46,10.46,10.46,0,0,1,2.7-.35c4.77,0,8.74,3.16,9.54,7.31H528.67a9.48,9.48,0,0,1,9.53-7.31,10.4,10.4,0,0,1,4.13.84,16.54,16.54,0,0,1,15.23-9.33,17.79,17.79,0,0,1,5.65.91C565.25,126.59,571.54,122.08,579,122.08Z"/><path id="Cloud-4" data-name="Cloud" class="cls-2" d="M443,115.61a25.82,25.82,0,0,0-20.09,9.6,15.25,15.25,0,0,0-9-2.95,15.42,15.42,0,0,0-14.59,10.54,15.27,15.27,0,0,0-4.5-.68,15.47,15.47,0,0,0-15.42,15.53c0,.27,0,.54,0,.81H487.72a13.5,13.5,0,0,0-13.44-12.89,13.2,13.2,0,0,0-5.82,1.34A26,26,0,0,0,443,115.61Z"/><path id="Cloud-5" data-name="Cloud" class="cls-5" d="M540.59,107.85a31.93,31.93,0,0,0-24.83,11.85,18.83,18.83,0,0,0-11.16-3.63,19.05,19.05,0,0,0-18,13,19.06,19.06,0,0,0-24.62,18.34c0,.36,0,.71,0,1.06H595.92a16.68,16.68,0,0,0-16.62-16,16.41,16.41,0,0,0-7.2,1.65A32.12,32.12,0,0,0,540.59,107.85Z"/></g><g id="Building_Large_3" data-name="Building/Large/3"><path id="Rectangle-134" data-name="Rectangle" class="cls-2" d="M264.12,228.92h0a2.27,2.27,0,0,1,2.27,2.27v9.11a2.27,2.27,0,0,1-2.27,2.28h0a2.28,2.28,0,0,1-2.28-2.28v-9.11A2.28,2.28,0,0,1,264.12,228.92Z"/><path id="Rectangle-135" data-name="Rectangle" class="cls-2" d="M270.49,223.45h0a2.28,2.28,0,0,1,2.28,2.28v9.11a2.28,2.28,0,0,1-2.28,2.27h0a2.27,2.27,0,0,1-2.27-2.27v-9.11A2.28,2.28,0,0,1,270.49,223.45Z"/><polygon id="Rectangle-136" data-name="Rectangle" class="cls-4" points="254.33 242.81 301.69 217.31 301.69 358.47 254.33 358.47 254.33 242.81"/><rect id="Rectangle-137" data-name="Rectangle" class="cls-7" x="301.69" y="217.31" width="29.14" height="141.16"/><path id="Rectangle-138" data-name="Rectangle" class="cls-8" d="M278,340.26a5.46,5.46,0,0,1,5.46,5.46v12.75H272.54V345.72A5.46,5.46,0,0,1,278,340.26Z"/><path id="Rectangle-139" data-name="Rectangle" class="cls-1" d="M263.43,252.82h0a5.47,5.47,0,0,1,5.47,5.47v1.82a5.46,5.46,0,0,1-5.47,5.46h0a5.46,5.46,0,0,1-5.46-5.46v-1.82A5.47,5.47,0,0,1,263.43,252.82Z"/><path id="Rectangle-140" data-name="Rectangle" class="cls-9" d="M263.43,296.54h0A5.47,5.47,0,0,1,268.9,302v1.83a5.47,5.47,0,0,1-5.47,5.46h0a5.47,5.47,0,0,1-5.46-5.46V302A5.47,5.47,0,0,1,263.43,296.54Z"/><path id="Rectangle-141" data-name="Rectangle" class="cls-8" d="M263.43,274.68h0a5.47,5.47,0,0,1,5.47,5.47V282a5.46,5.46,0,0,1-5.47,5.46h0A5.46,5.46,0,0,1,258,282v-1.82A5.47,5.47,0,0,1,263.43,274.68Z"/><path id="Rectangle-142" data-name="Rectangle" class="cls-8" d="M278,252.82h0a5.47,5.47,0,0,1,5.46,5.47v1.82a5.46,5.46,0,0,1-5.46,5.46h0a5.46,5.46,0,0,1-5.47-5.46v-1.82A5.47,5.47,0,0,1,278,252.82Z"/><path id="Rectangle-143" data-name="Rectangle" class="cls-8" d="M278,296.54h0a5.47,5.47,0,0,1,5.46,5.46v1.83a5.47,5.47,0,0,1-5.46,5.46h0a5.47,5.47,0,0,1-5.47-5.46V302A5.47,5.47,0,0,1,278,296.54Z"/><path id="Rectangle-144" data-name="Rectangle" class="cls-8" d="M278,274.68h0a5.47,5.47,0,0,1,5.46,5.47V282a5.46,5.46,0,0,1-5.46,5.46h0a5.46,5.46,0,0,1-5.47-5.46v-1.82A5.47,5.47,0,0,1,278,274.68Z"/><path id="Rectangle-145" data-name="Rectangle" class="cls-9" d="M292.58,252.82h0a5.46,5.46,0,0,1,5.46,5.47v1.82a5.45,5.45,0,0,1-5.46,5.46h0a5.46,5.46,0,0,1-5.47-5.46v-1.82A5.47,5.47,0,0,1,292.58,252.82Z"/><path id="Rectangle-146" data-name="Rectangle" class="cls-8" d="M292.58,296.54h0A5.46,5.46,0,0,1,298,302v1.83a5.46,5.46,0,0,1-5.46,5.46h0a5.47,5.47,0,0,1-5.47-5.46V302A5.47,5.47,0,0,1,292.58,296.54Z"/><path id="Rectangle-147" data-name="Rectangle" class="cls-8" d="M292.58,274.68h0a5.46,5.46,0,0,1,5.46,5.47V282a5.45,5.45,0,0,1-5.46,5.46h0a5.46,5.46,0,0,1-5.47-5.46v-1.82A5.47,5.47,0,0,1,292.58,274.68Z"/><path id="Rectangle-148" data-name="Rectangle" class="cls-1" d="M313.52,252.82H319a6.38,6.38,0,0,1,6.37,6.38h0a6.37,6.37,0,0,1-6.37,6.37h-5.47a6.37,6.37,0,0,1-6.37-6.37h0A6.38,6.38,0,0,1,313.52,252.82Z"/><path id="Rectangle-149" data-name="Rectangle" class="cls-1" d="M313.52,296.54H319a6.37,6.37,0,0,1,6.37,6.37h0a6.37,6.37,0,0,1-6.37,6.38h-5.47a6.37,6.37,0,0,1-6.37-6.38h0A6.37,6.37,0,0,1,313.52,296.54Z"/><rect id="Rectangle-150" data-name="Rectangle" class="cls-17" x="307.15" y="226.41" width="18.21" height="17.3" rx="6.38"/><path id="Rectangle-151" data-name="Rectangle" class="cls-1" d="M313.52,274.68H319a6.38,6.38,0,0,1,6.37,6.38h0a6.37,6.37,0,0,1-6.37,6.37h-5.47a6.37,6.37,0,0,1-6.37-6.37h0A6.38,6.38,0,0,1,313.52,274.68Z"/><path id="Rectangle-152" data-name="Rectangle" class="cls-8" d="M263.43,318.4h0a5.46,5.46,0,0,1,5.47,5.46v1.82a5.47,5.47,0,0,1-5.47,5.47h0a5.47,5.47,0,0,1-5.46-5.47v-1.82A5.46,5.46,0,0,1,263.43,318.4Z"/><path id="Rectangle-153" data-name="Rectangle" class="cls-8" d="M263.43,340.26h0a5.46,5.46,0,0,1,5.47,5.46v1.82a5.47,5.47,0,0,1-5.47,5.47h0a5.47,5.47,0,0,1-5.46-5.47v-1.82A5.46,5.46,0,0,1,263.43,340.26Z"/><path id="Rectangle-154" data-name="Rectangle" class="cls-8" d="M278,318.4h0a5.46,5.46,0,0,1,5.46,5.46v1.82a5.47,5.47,0,0,1-5.46,5.47h0a5.47,5.47,0,0,1-5.47-5.47v-1.82A5.46,5.46,0,0,1,278,318.4Z"/><path id="Rectangle-155" data-name="Rectangle" class="cls-1" d="M292.58,318.4h0a5.45,5.45,0,0,1,5.46,5.46v1.82a5.46,5.46,0,0,1-5.46,5.47h0a5.47,5.47,0,0,1-5.47-5.47v-1.82A5.46,5.46,0,0,1,292.58,318.4Z"/><path id="Rectangle-156" data-name="Rectangle" class="cls-8" d="M292.58,340.26h0a5.45,5.45,0,0,1,5.46,5.46v1.82a5.46,5.46,0,0,1-5.46,5.47h0a5.47,5.47,0,0,1-5.47-5.47v-1.82A5.46,5.46,0,0,1,292.58,340.26Z"/><path id="Rectangle-157" data-name="Rectangle" class="cls-1" d="M313.52,318.4H319a6.37,6.37,0,0,1,6.37,6.37h0a6.38,6.38,0,0,1-6.37,6.38h-5.47a6.38,6.38,0,0,1-6.37-6.38h0A6.37,6.37,0,0,1,313.52,318.4Z"/><path id="Rectangle-158" data-name="Rectangle" class="cls-1" d="M313.52,340.26H319a6.37,6.37,0,0,1,6.37,6.37h0A6.38,6.38,0,0,1,319,353h-5.47a6.38,6.38,0,0,1-6.37-6.38h0A6.37,6.37,0,0,1,313.52,340.26Z"/></g></g></g></svg>