<svg xmlns="http://www.w3.org/2000/svg" viewBox="0 0 65.57 69.91"><defs><style>.cls-1{fill:none;stroke:#fff;stroke-miterlimit:10;stroke-width:1.5px;}</style></defs><g id="Layer_2" data-name="Layer 2"><g id="Layer_1-2" data-name="Layer 1"><g id="Layer_2-2" data-name="Layer 2"><g id="Layer_4" data-name="Layer 4"><path class="cls-1" d="M1.5,10.17l16.12,9.31,16.12-9.31L19.48,1.94a3.74,3.74,0,0,0-3.72,0Z"/><path class="cls-1" d="M2.62,31l14.25,8.24V20.59L.76,11.29V27.75A3.72,3.72,0,0,0,2.62,31Z"/><path class="cls-1" d="M36.34,10.17l16.12,9.31L63,13.4a3.72,3.72,0,0,0,1.3-5.1A3.6,3.6,0,0,0,63,7L52.46.87Z"/><polygon class="cls-1" points="35.6 29.9 51.72 39.21 51.72 20.59 35.6 11.29 35.6 29.9"/><polygon class="cls-1" points="18.73 40.32 34.85 49.63 50.97 40.32 34.85 31.02 18.73 40.32"/><path class="cls-1" d="M19.85,60.38l14.26,8.23V50.75L18,41.44V57.16A3.73,3.73,0,0,0,19.85,60.38Z"/></g></g></g></g></svg>