<svg xmlns="http://www.w3.org/2000/svg" viewBox="0 0 12 16"><defs><style>#Layer_1-2{fill:#8c98a4;fill-rule:evenodd;}</style></defs><g id="Layer_2" data-name="Layer 2"><g id="Layer_1-2" data-name="Layer 1"><path d="M1.33,0A1.34,1.34,0,0,0,0,1.33V14.67A1.34,1.34,0,0,0,1.33,16h9.34A1.34,1.34,0,0,0,12,14.67v-11a.35.35,0,0,0-.1-.24L8.57.1A.35.35,0,0,0,8.33,0Zm0,.67H8v2A1.34,1.34,0,0,0,9.33,4h2V14.67a.67.67,0,0,1-.66.66H1.33a.67.67,0,0,1-.66-.66V1.33A.67.67,0,0,1,1.33.67Zm7.34.47,2.19,2.19H9.33a.67.67,0,0,1-.66-.66ZM2.33,3.33a.34.34,0,0,0,0,.67h4a.34.34,0,1,0,0-.67Zm0,2a.34.34,0,0,0,0,.67H9.67a.34.34,0,0,0,0-.67Zm0,2a.34.34,0,0,0,0,.67H9.67a.34.34,0,0,0,0-.67ZM5,9.33A.34.34,0,0,0,5,10H9.67a.34.34,0,0,0,0-.67ZM3,10.67A1.32,1.32,0,0,0,2,12a2.14,2.14,0,0,0,.45,1.12,2.79,2.79,0,0,1-.32.28.34.34,0,0,0-.06.47.33.33,0,0,0,.26.13.31.31,0,0,0,.2-.07,2.55,2.55,0,0,0,.37-.32,1.24,1.24,0,0,0,.77.39c.45,0,.71-.51,1-1,.15.5.3,1,.71,1H7.24c.09,0,.29-.05.29-.29a.36.36,0,0,0-.26-.38l-1.86,0c0-.13-.12-.35-.16-.49-.14-.45-.24-.8-.58-.8s-.43.27-.63.67a3.36,3.36,0,0,1-.37.66.68.68,0,0,1-.33-.22A2.69,2.69,0,0,0,4,11.67a1,1,0,0,0-1-1Zm0,.66a.31.31,0,0,1,.33.34,2,2,0,0,1-.43.92A1.16,1.16,0,0,1,2.67,12,.86.86,0,0,1,3,11.33Z"/></g></g></svg>