<svg xmlns="http://www.w3.org/2000/svg" width="24.889" height="25" viewBox="0 0 24.889 25">
  <g id="Group_6" data-name="Group 6" transform="translate(0.503 0.5)">
    <path id="Path_31" data-name="Path 31" d="M10.362,13.077c-.066-.058-.22-.194-.275-.245a7.441,7.441,0,0,1-2.2-5.42C7.883,3.556,10.537.5,13.694.5S19.5,3.556,19.5,7.412a7.455,7.455,0,0,1-2.2,5.419c-.056.053-.212.191-.278.249l-.006.1A1.407,1.407,0,0,0,18,14.425c4.125,1.3,7.115,4.422,7.617,8.116a1.719,1.719,0,0,1-1.7,1.958H3.472a1.72,1.72,0,0,1-1.7-1.956c.5-3.7,3.494-6.815,7.618-8.119a1.407,1.407,0,0,0,.979-1.254l0-.094Zm.844.122a2.137,2.137,0,0,0-.018-.3,3.035,3.035,0,0,0-.526-.676A6.6,6.6,0,0,1,8.722,7.412c0-3.352,2.228-6.073,4.971-6.073s4.971,2.721,4.971,6.073a6.611,6.611,0,0,1-1.936,4.808,3.042,3.042,0,0,0-.526.676,2.163,2.163,0,0,0-.021.3,2.248,2.248,0,0,0,1.565,2.026c3.792,1.2,6.577,4.032,7.039,7.432a.88.88,0,0,1-.871,1H3.472a.88.88,0,0,1-.872-1c.463-3.4,3.247-6.233,7.04-7.432A2.248,2.248,0,0,0,11.205,13.2Z" transform="translate(-1.752 -0.5)" fill="#f5f5f5" stroke="#8c98a4" stroke-width="1" fill-rule="evenodd"/>
  </g>
</svg>
