<svg xmlns="http://www.w3.org/2000/svg" viewBox="0 0 246.8 69.91"><defs><style>.cls-1{fill:#404041;}.cls-2,.cls-3{fill:none;stroke-miterlimit:10;stroke-width:1.5px;}.cls-2{stroke:#64c8bd;}.cls-3{stroke:#094a6f;}</style></defs><g id="Layer_2" data-name="Layer 2"><g id="Layer_4" data-name="Layer 4"><path class="cls-1" d="M93.6,30.33a7.34,7.34,0,0,0-3.33-.84A7.16,7.16,0,0,0,84,33.18,7.59,7.59,0,0,0,83,37a7.69,7.69,0,0,0,1,3.81,7.26,7.26,0,0,0,2.63,2.73,7.05,7.05,0,0,0,3.69,1,7.74,7.74,0,0,0,3.26-.76,10.28,10.28,0,0,0,3-2.07l3.18,3.45a14.37,14.37,0,0,1-4.49,3.14A12.55,12.55,0,0,1,90,49.43a12.75,12.75,0,0,1-6.39-1.62,11.92,11.92,0,0,1-4.51-4.46A12.36,12.36,0,0,1,77.47,37a11.91,11.91,0,0,1,6.26-10.65,13.21,13.21,0,0,1,6.47-1.61,12.9,12.9,0,0,1,5.12,1.08,12.7,12.7,0,0,1,4.3,2.92l-3.14,3.85A9.24,9.24,0,0,0,93.6,30.33Z"/><path class="cls-1" d="M114.73,31.68A8.32,8.32,0,0,1,118.2,35a10.4,10.4,0,0,1,0,9.81,8.46,8.46,0,0,1-3.47,3.31,11.85,11.85,0,0,1-10.31,0A8.37,8.37,0,0,1,101,44.77,10.4,10.4,0,0,1,101,35a8.24,8.24,0,0,1,3.46-3.28,12,12,0,0,1,10.31,0Zm-8.47,4.61A5.21,5.21,0,0,0,105,39.94a5.21,5.21,0,0,0,1.28,3.65,4.3,4.3,0,0,0,3.33,1.4,4.25,4.25,0,0,0,3.3-1.4,5.21,5.21,0,0,0,1.28-3.65,5.21,5.21,0,0,0-1.28-3.65,4.25,4.25,0,0,0-3.3-1.4A4.3,4.3,0,0,0,106.26,36.29Z"/><path class="cls-1" d="M138.39,32.39a7.13,7.13,0,0,1,1.83,5.13V49.06H135v-10a3.84,3.84,0,0,0-1-2.75,3.51,3.51,0,0,0-2.65-1,3.9,3.9,0,0,0-3.07,1.35A5,5,0,0,0,127.14,40v9.05h-5.26V30.69h5.26V33.9q1.9-3.34,6.35-3.42A6.48,6.48,0,0,1,138.39,32.39Z"/><path class="cls-1" d="M160.5,26.68A11,11,0,0,1,165,30.91a12,12,0,0,1,1.59,6.2,11.84,11.84,0,0,1-1.62,6.19,11.24,11.24,0,0,1-4.53,4.24,14.08,14.08,0,0,1-6.62,1.52h-9.93V25.16H154A13.64,13.64,0,0,1,160.5,26.68Zm-2.82,16.9A6.59,6.59,0,0,0,160.16,41a8,8,0,0,0,.88-3.82,7.85,7.85,0,0,0-.94-3.86,6.64,6.64,0,0,0-2.56-2.64,7.14,7.14,0,0,0-3.67-.94h-4.64V44.51h4.88A6.94,6.94,0,0,0,157.68,43.58Z"/><path class="cls-1" d="M173.66,23.35a3.2,3.2,0,0,1,0,4.23,2.77,2.77,0,0,1-2.07.82,2.69,2.69,0,0,1-2-.84,3.17,3.17,0,0,1,0-4.21,2.71,2.71,0,0,1,2-.82A2.77,2.77,0,0,1,173.66,23.35ZM169,30.69h5.26V49.06H169Z"/><path class="cls-1" d="M195.46,30.69V47.35a8.2,8.2,0,0,1-1.23,4.52,8,8,0,0,1-3.45,3,11.86,11.86,0,0,1-5.12,1,13.85,13.85,0,0,1-4.29-.65,14.37,14.37,0,0,1-3.7-1.77l2-3.69a9.61,9.61,0,0,0,5.7,1.85,5.42,5.42,0,0,0,3.58-1.11,3.69,3.69,0,0,0,1.33-3V45.44a6.08,6.08,0,0,1-2.32,2,7.28,7.28,0,0,1-3.21.68A7.89,7.89,0,0,1,180.52,47a7.45,7.45,0,0,1-2.83-3.12,10.3,10.3,0,0,1-1-4.65,9.81,9.81,0,0,1,1-4.55,7.41,7.41,0,0,1,2.83-3.06,8,8,0,0,1,4.18-1.09,7,7,0,0,1,3.18.7,6.54,6.54,0,0,1,2.35,2V30.69ZM189,42.79a4.94,4.94,0,0,0,1.19-3.43A5,5,0,0,0,189,35.91a4.29,4.29,0,0,0-6.21,0,5.46,5.46,0,0,0,0,6.88,4.34,4.34,0,0,0,6.23,0Z"/><path class="cls-1" d="M203.94,23.35a3.2,3.2,0,0,1,0,4.23,2.76,2.76,0,0,1-2.07.82,2.71,2.71,0,0,1-2-.84,3.17,3.17,0,0,1,0-4.21,2.73,2.73,0,0,1,2-.82A2.76,2.76,0,0,1,203.94,23.35Zm-4.69,7.34h5.25V49.06h-5.25Z"/><path class="cls-1" d="M219.9,48a8.68,8.68,0,0,1-2.27.94,9.76,9.76,0,0,1-2.51.32A5.9,5.9,0,0,1,211,47.83a5.41,5.41,0,0,1-1.61-4.2v-8.5h-2.56V31.51h2.56V26.45h5.23v5.06h5v3.65h-5v7.58c0,1.41.55,2.12,1.67,2.12a5.9,5.9,0,0,0,2.56-.69Z"/><path class="cls-1" d="M232.7,49.06V46.91a5.88,5.88,0,0,1-2.39,1.77,8.64,8.64,0,0,1-3.38.61,6.5,6.5,0,0,1-4.61-1.58,5.43,5.43,0,0,1-1.7-4.15,4.9,4.9,0,0,1,1.82-4.05A8.33,8.33,0,0,1,227.62,38h5v-.34a2.79,2.79,0,0,0-1-2.27,4.36,4.36,0,0,0-2.85-.81,11.4,11.4,0,0,0-5.47,1.61l-1.64-3.62a21.93,21.93,0,0,1,4.1-1.6,15.89,15.89,0,0,1,4.2-.52,8.54,8.54,0,0,1,5.72,1.74,6.14,6.14,0,0,1,2.06,4.85l0,12Zm-1.46-4.31a3.07,3.07,0,0,0,1.43-2V41.14h-4.13a4.11,4.11,0,0,0-2.27.49,1.78,1.78,0,0,0-.74,1.59,2.09,2.09,0,0,0,.77,1.69,3.21,3.21,0,0,0,2.1.63A5,5,0,0,0,231.24,44.75Z"/><path class="cls-1" d="M241.55,23.72h5.25V49.06h-5.25Z"/><path class="cls-2" d="M1.5,10.17l16.12,9.31,16.12-9.31L19.48,1.94a3.74,3.74,0,0,0-3.72,0Z"/><path class="cls-3" d="M2.62,31l14.25,8.24V20.59L.76,11.29V27.75A3.71,3.71,0,0,0,2.62,31Z"/><path class="cls-2" d="M36.34,10.17l16.12,9.31L63,13.4A3.72,3.72,0,0,0,63,7L52.46.87Z"/><polygon class="cls-3" points="35.6 29.9 51.72 39.21 51.72 20.59 35.6 11.29 35.6 29.9"/><polygon class="cls-2" points="18.73 40.32 34.85 49.63 50.97 40.32 34.85 31.02 18.73 40.32"/><path class="cls-3" d="M19.85,60.38l14.26,8.23V50.75L18,41.44V57.16A3.71,3.71,0,0,0,19.85,60.38Z"/></g></g></svg>